<svg xmlns="http://www.w3.org/2000/svg" version="1.1" xmlns:xlink="http://www.w3.org/1999/xlink" xmlns:svgjs="http://svgjs.dev/svgjs" width="1440" height="560" preserveAspectRatio="none" viewBox="0 0 1440 560">
    <g mask="url(&quot;#SvgjsMask1006&quot;)" fill="none">
        <path d="M-72.25 372L-72.25 372" stroke="rgba(68, 119, 225, 0.18)" stroke-width="1.5"></path>
        <path d="M-72.25 372L74.29 354.51" stroke="rgba(68, 119, 225, 0.18)" stroke-width="1.5"></path>
        <path d="M-72.25 372L-55.47 547.8" stroke="rgba(68, 119, 225, 0.18)" stroke-width="1.5"></path>
        <path d="M-72.25 372L86.95 555.53" stroke="rgba(68, 119, 225, 0.18)" stroke-width="1.5"></path>
        <path d="M-72.25 372L-98.79 652.76" stroke="rgba(68, 119, 225, 0.18)" stroke-width="1.5"></path>
        <path d="M-72.25 372L72.68 641.68" stroke="rgba(68, 119, 225, 0.18)" stroke-width="1.5"></path>
        <path d="M-72.25 372L247.51 394.71" stroke="rgba(68, 119, 225, 0.18)" stroke-width="1.5"></path>
        <path d="M-55.47 547.8L-55.47 547.8" stroke="rgba(68, 119, 225, 0.18)" stroke-width="1.5"></path>
        <path d="M-55.47 547.8L-98.79 652.76" stroke="rgba(68, 119, 225, 0.18)" stroke-width="1.5"></path>
        <path d="M-55.47 547.8L86.95 555.53" stroke="rgba(68, 119, 225, 0.18)" stroke-width="1.5"></path>
        <path d="M-55.47 547.8L72.68 641.68" stroke="rgba(68, 119, 225, 0.18)" stroke-width="1.5"></path>
        <path d="M-98.79 652.76L-98.79 652.76" stroke="rgba(68, 119, 225, 0.18)" stroke-width="1.5"></path>
        <path d="M-98.79 652.76L72.68 641.68" stroke="rgba(68, 119, 225, 0.18)" stroke-width="1.5"></path>
        <path d="M-98.79 652.76L86.95 555.53" stroke="rgba(68, 119, 225, 0.18)" stroke-width="1.5"></path>
        <path d="M-98.79 652.76L229.83 662.23" stroke="rgba(68, 119, 225, 0.18)" stroke-width="1.5"></path>
        <path d="M74.29 354.51L74.29 354.51" stroke="rgba(68, 119, 225, 0.18)" stroke-width="1.5"></path>
        <path d="M74.29 354.51L247.51 394.71" stroke="rgba(68, 119, 225, 0.18)" stroke-width="1.5"></path>
        <path d="M74.29 354.51L86.95 555.53" stroke="rgba(68, 119, 225, 0.18)" stroke-width="1.5"></path>
        <path d="M86.95 555.53L86.95 555.53" stroke="rgba(68, 119, 225, 0.18)" stroke-width="1.5"></path>
        <path d="M86.95 555.53L72.68 641.68" stroke="rgba(68, 119, 225, 0.18)" stroke-width="1.5"></path>
        <path d="M86.95 555.53L254.49 544.08" stroke="rgba(68, 119, 225, 0.18)" stroke-width="1.5"></path>
        <path d="M72.68 641.68L72.68 641.68" stroke="rgba(68, 119, 225, 0.18)" stroke-width="1.5"></path>
        <path d="M72.68 641.68L229.83 662.23" stroke="rgba(68, 119, 225, 0.18)" stroke-width="1.5"></path>
        <path d="M247.51 394.71L247.51 394.71" stroke="rgba(68, 119, 225, 0.18)" stroke-width="1.5"></path>
        <path d="M247.51 394.71L254.49 544.08" stroke="rgba(68, 119, 225, 0.18)" stroke-width="1.5"></path>
        <path d="M247.51 394.71L407.76 341.81" stroke="rgba(68, 119, 225, 0.18)" stroke-width="1.5"></path>
        <path d="M247.51 394.71L348.98 537.08" stroke="rgba(68, 119, 225, 0.18)" stroke-width="1.5"></path>
        <path d="M247.51 394.71L86.95 555.53" stroke="rgba(68, 119, 225, 0.18)" stroke-width="1.5"></path>
        <path d="M254.49 544.08L254.49 544.08" stroke="rgba(68, 119, 225, 0.18)" stroke-width="1.5"></path>
        <path d="M254.49 544.08L348.98 537.08" stroke="rgba(68, 119, 225, 0.18)" stroke-width="1.5"></path>
        <path d="M254.49 544.08L229.83 662.23" stroke="rgba(68, 119, 225, 0.18)" stroke-width="1.5"></path>
        <path d="M229.83 662.23L229.83 662.23" stroke="rgba(68, 119, 225, 0.18)" stroke-width="1.5"></path>
        <path d="M407.76 341.81L407.76 341.81" stroke="rgba(68, 119, 225, 0.18)" stroke-width="1.5"></path>
        <path d="M407.76 341.81L545.81 363.52" stroke="rgba(68, 119, 225, 0.18)" stroke-width="1.5"></path>
        <path d="M407.76 341.81L348.98 537.08" stroke="rgba(68, 119, 225, 0.18)" stroke-width="1.5"></path>
        <path d="M407.76 341.81L548.48 513.63" stroke="rgba(68, 119, 225, 0.18)" stroke-width="1.5"></path>
        <path d="M407.76 341.81L254.49 544.08" stroke="rgba(68, 119, 225, 0.18)" stroke-width="1.5"></path>
        <path d="M407.76 341.81L683.41 354.32" stroke="rgba(68, 119, 225, 0.18)" stroke-width="1.5"></path>
        <path d="M348.98 537.08L348.98 537.08" stroke="rgba(68, 119, 225, 0.18)" stroke-width="1.5"></path>
        <path d="M348.98 537.08L389.25 651.06" stroke="rgba(68, 119, 225, 0.18)" stroke-width="1.5"></path>
        <path d="M389.25 651.06L389.25 651.06" stroke="rgba(68, 119, 225, 0.18)" stroke-width="1.5"></path>
        <path d="M389.25 651.06L531.38 705.04" stroke="rgba(68, 119, 225, 0.18)" stroke-width="1.5"></path>
        <path d="M389.25 651.06L229.83 662.23" stroke="rgba(68, 119, 225, 0.18)" stroke-width="1.5"></path>
        <path d="M545.81 363.52L545.81 363.52" stroke="rgba(68, 119, 225, 0.18)" stroke-width="1.5"></path>
        <path d="M545.81 363.52L683.41 354.32" stroke="rgba(68, 119, 225, 0.18)" stroke-width="1.5"></path>
        <path d="M545.81 363.52L548.48 513.63" stroke="rgba(68, 119, 225, 0.18)" stroke-width="1.5"></path>
        <path d="M548.48 513.63L548.48 513.63" stroke="rgba(68, 119, 225, 0.18)" stroke-width="1.5"></path>
        <path d="M548.48 513.63L683.68 520.35" stroke="rgba(68, 119, 225, 0.18)" stroke-width="1.5"></path>
        <path d="M548.48 513.63L675.8 643.9" stroke="rgba(68, 119, 225, 0.18)" stroke-width="1.5"></path>
        <path d="M548.48 513.63L531.38 705.04" stroke="rgba(68, 119, 225, 0.18)" stroke-width="1.5"></path>
        <path d="M548.48 513.63L348.98 537.08" stroke="rgba(68, 119, 225, 0.18)" stroke-width="1.5"></path>
        <path d="M548.48 513.63L683.41 354.32" stroke="rgba(68, 119, 225, 0.18)" stroke-width="1.5"></path>
        <path d="M531.38 705.04L531.38 705.04" stroke="rgba(68, 119, 225, 0.18)" stroke-width="1.5"></path>
        <path d="M531.38 705.04L675.8 643.9" stroke="rgba(68, 119, 225, 0.18)" stroke-width="1.5"></path>
        <path d="M531.38 705.04L683.68 520.35" stroke="rgba(68, 119, 225, 0.18)" stroke-width="1.5"></path>
        <path d="M693.3 236.33L693.3 236.33" stroke="rgba(68, 119, 225, 0.18)" stroke-width="1.5"></path>
        <path d="M693.3 236.33L800.23 228.94" stroke="rgba(68, 119, 225, 0.18)" stroke-width="1.5"></path>
        <path d="M693.3 236.33L683.41 354.32" stroke="rgba(68, 119, 225, 0.18)" stroke-width="1.5"></path>
        <path d="M693.3 236.33L545.81 363.52" stroke="rgba(68, 119, 225, 0.18)" stroke-width="1.5"></path>
        <path d="M683.41 354.32L683.41 354.32" stroke="rgba(68, 119, 225, 0.18)" stroke-width="1.5"></path>
        <path d="M683.41 354.32L683.68 520.35" stroke="rgba(68, 119, 225, 0.18)" stroke-width="1.5"></path>
        <path d="M683.41 354.32L800.23 228.94" stroke="rgba(68, 119, 225, 0.18)" stroke-width="1.5"></path>
        <path d="M683.41 354.32L860.99 376.75" stroke="rgba(68, 119, 225, 0.18)" stroke-width="1.5"></path>
        <path d="M683.68 520.35L683.68 520.35" stroke="rgba(68, 119, 225, 0.18)" stroke-width="1.5"></path>
        <path d="M683.68 520.35L675.8 643.9" stroke="rgba(68, 119, 225, 0.18)" stroke-width="1.5"></path>
        <path d="M683.68 520.35L843.33 540.72" stroke="rgba(68, 119, 225, 0.18)" stroke-width="1.5"></path>
        <path d="M675.8 643.9L675.8 643.9" stroke="rgba(68, 119, 225, 0.18)" stroke-width="1.5"></path>
        <path d="M675.8 643.9L807.29 655.14" stroke="rgba(68, 119, 225, 0.18)" stroke-width="1.5"></path>
        <path d="M856.17 65.03L856.17 65.03" stroke="rgba(68, 119, 225, 0.18)" stroke-width="1.5"></path>
        <path d="M856.17 65.03L982.35 85.94" stroke="rgba(68, 119, 225, 0.18)" stroke-width="1.5"></path>
        <path d="M856.17 65.03L800.23 228.94" stroke="rgba(68, 119, 225, 0.18)" stroke-width="1.5"></path>
        <path d="M856.17 65.03L988.96 202.9" stroke="rgba(68, 119, 225, 0.18)" stroke-width="1.5"></path>
        <path d="M856.17 65.03L963.72 -111.25" stroke="rgba(68, 119, 225, 0.18)" stroke-width="1.5"></path>
        <path d="M856.17 65.03L693.3 236.33" stroke="rgba(68, 119, 225, 0.18)" stroke-width="1.5"></path>
        <path d="M800.23 228.94L800.23 228.94" stroke="rgba(68, 119, 225, 0.18)" stroke-width="1.5"></path>
        <path d="M800.23 228.94L860.99 376.75" stroke="rgba(68, 119, 225, 0.18)" stroke-width="1.5"></path>
        <path d="M860.99 376.75L860.99 376.75" stroke="rgba(68, 119, 225, 0.18)" stroke-width="1.5"></path>
        <path d="M860.99 376.75L946.78 388.8" stroke="rgba(68, 119, 225, 0.18)" stroke-width="1.5"></path>
        <path d="M860.99 376.75L937.89 505.41" stroke="rgba(68, 119, 225, 0.18)" stroke-width="1.5"></path>
        <path d="M843.33 540.72L843.33 540.72" stroke="rgba(68, 119, 225, 0.18)" stroke-width="1.5"></path>
        <path d="M843.33 540.72L937.89 505.41" stroke="rgba(68, 119, 225, 0.18)" stroke-width="1.5"></path>
        <path d="M843.33 540.72L807.29 655.14" stroke="rgba(68, 119, 225, 0.18)" stroke-width="1.5"></path>
        <path d="M843.33 540.72L955.1 640.52" stroke="rgba(68, 119, 225, 0.18)" stroke-width="1.5"></path>
        <path d="M843.33 540.72L860.99 376.75" stroke="rgba(68, 119, 225, 0.18)" stroke-width="1.5"></path>
        <path d="M843.33 540.72L946.78 388.8" stroke="rgba(68, 119, 225, 0.18)" stroke-width="1.5"></path>
        <path d="M807.29 655.14L807.29 655.14" stroke="rgba(68, 119, 225, 0.18)" stroke-width="1.5"></path>
        <path d="M963.72 -111.25L963.72 -111.25" stroke="rgba(68, 119, 225, 0.18)" stroke-width="1.5"></path>
        <path d="M963.72 -111.25L1116.95 -95.35" stroke="rgba(68, 119, 225, 0.18)" stroke-width="1.5"></path>
        <path d="M963.72 -111.25L982.35 85.94" stroke="rgba(68, 119, 225, 0.18)" stroke-width="1.5"></path>
        <path d="M982.35 85.94L982.35 85.94" stroke="rgba(68, 119, 225, 0.18)" stroke-width="1.5"></path>
        <path d="M982.35 85.94L988.96 202.9" stroke="rgba(68, 119, 225, 0.18)" stroke-width="1.5"></path>
        <path d="M982.35 85.94L1155.48 108.57" stroke="rgba(68, 119, 225, 0.18)" stroke-width="1.5"></path>
        <path d="M988.96 202.9L988.96 202.9" stroke="rgba(68, 119, 225, 0.18)" stroke-width="1.5"></path>
        <path d="M988.96 202.9L1113.92 242.59" stroke="rgba(68, 119, 225, 0.18)" stroke-width="1.5"></path>
        <path d="M988.96 202.9L800.23 228.94" stroke="rgba(68, 119, 225, 0.18)" stroke-width="1.5"></path>
        <path d="M988.96 202.9L946.78 388.8" stroke="rgba(68, 119, 225, 0.18)" stroke-width="1.5"></path>
        <path d="M988.96 202.9L1155.48 108.57" stroke="rgba(68, 119, 225, 0.18)" stroke-width="1.5"></path>
        <path d="M946.78 388.8L946.78 388.8" stroke="rgba(68, 119, 225, 0.18)" stroke-width="1.5"></path>
        <path d="M946.78 388.8L937.89 505.41" stroke="rgba(68, 119, 225, 0.18)" stroke-width="1.5"></path>
        <path d="M946.78 388.8L1129.55 377.58" stroke="rgba(68, 119, 225, 0.18)" stroke-width="1.5"></path>
        <path d="M937.89 505.41L937.89 505.41" stroke="rgba(68, 119, 225, 0.18)" stroke-width="1.5"></path>
        <path d="M937.89 505.41L955.1 640.52" stroke="rgba(68, 119, 225, 0.18)" stroke-width="1.5"></path>
        <path d="M937.89 505.41L807.29 655.14" stroke="rgba(68, 119, 225, 0.18)" stroke-width="1.5"></path>
        <path d="M937.89 505.41L1156.04 559.33" stroke="rgba(68, 119, 225, 0.18)" stroke-width="1.5"></path>
        <path d="M955.1 640.52L955.1 640.52" stroke="rgba(68, 119, 225, 0.18)" stroke-width="1.5"></path>
        <path d="M955.1 640.52L807.29 655.14" stroke="rgba(68, 119, 225, 0.18)" stroke-width="1.5"></path>
        <path d="M1116.95 -95.35L1116.95 -95.35" stroke="rgba(68, 119, 225, 0.18)" stroke-width="1.5"></path>
        <path d="M1116.95 -95.35L1295.13 -108.93" stroke="rgba(68, 119, 225, 0.18)" stroke-width="1.5"></path>
        <path d="M1116.95 -95.35L1243.76 44.42" stroke="rgba(68, 119, 225, 0.18)" stroke-width="1.5"></path>
        <path d="M1116.95 -95.35L1155.48 108.57" stroke="rgba(68, 119, 225, 0.18)" stroke-width="1.5"></path>
        <path d="M1116.95 -95.35L982.35 85.94" stroke="rgba(68, 119, 225, 0.18)" stroke-width="1.5"></path>
        <path d="M1155.48 108.57L1155.48 108.57" stroke="rgba(68, 119, 225, 0.18)" stroke-width="1.5"></path>
        <path d="M1155.48 108.57L1243.76 44.42" stroke="rgba(68, 119, 225, 0.18)" stroke-width="1.5"></path>
        <path d="M1155.48 108.57L1113.92 242.59" stroke="rgba(68, 119, 225, 0.18)" stroke-width="1.5"></path>
        <path d="M1113.92 242.59L1113.92 242.59" stroke="rgba(68, 119, 225, 0.18)" stroke-width="1.5"></path>
        <path d="M1129.55 377.58L1129.55 377.58" stroke="rgba(68, 119, 225, 0.18)" stroke-width="1.5"></path>
        <path d="M1129.55 377.58L1113.92 242.59" stroke="rgba(68, 119, 225, 0.18)" stroke-width="1.5"></path>
        <path d="M1129.55 377.58L1300.96 411.85" stroke="rgba(68, 119, 225, 0.18)" stroke-width="1.5"></path>
        <path d="M1129.55 377.58L1156.04 559.33" stroke="rgba(68, 119, 225, 0.18)" stroke-width="1.5"></path>
        <path d="M1129.55 377.58L1285.16 258.95" stroke="rgba(68, 119, 225, 0.18)" stroke-width="1.5"></path>
        <path d="M1156.04 559.33L1156.04 559.33" stroke="rgba(68, 119, 225, 0.18)" stroke-width="1.5"></path>
        <path d="M1156.04 559.33L1125.15 664.71" stroke="rgba(68, 119, 225, 0.18)" stroke-width="1.5"></path>
        <path d="M1156.04 559.33L1256.23 664.78" stroke="rgba(68, 119, 225, 0.18)" stroke-width="1.5"></path>
        <path d="M1156.04 559.33L1288.83 499.46" stroke="rgba(68, 119, 225, 0.18)" stroke-width="1.5"></path>
        <path d="M1156.04 559.33L1300.96 411.85" stroke="rgba(68, 119, 225, 0.18)" stroke-width="1.5"></path>
        <path d="M1156.04 559.33L955.1 640.52" stroke="rgba(68, 119, 225, 0.18)" stroke-width="1.5"></path>
        <path d="M1125.15 664.71L1125.15 664.71" stroke="rgba(68, 119, 225, 0.18)" stroke-width="1.5"></path>
        <path d="M1125.15 664.71L1256.23 664.78" stroke="rgba(68, 119, 225, 0.18)" stroke-width="1.5"></path>
        <path d="M1125.15 664.71L955.1 640.52" stroke="rgba(68, 119, 225, 0.18)" stroke-width="1.5"></path>
        <path d="M1125.15 664.71L1288.83 499.46" stroke="rgba(68, 119, 225, 0.18)" stroke-width="1.5"></path>
        <path d="M1295.13 -108.93L1295.13 -108.93" stroke="rgba(68, 119, 225, 0.18)" stroke-width="1.5"></path>
        <path d="M1295.13 -108.93L1448.52 -81.2" stroke="rgba(68, 119, 225, 0.18)" stroke-width="1.5"></path>
        <path d="M1295.13 -108.93L1243.76 44.42" stroke="rgba(68, 119, 225, 0.18)" stroke-width="1.5"></path>
        <path d="M1295.13 -108.93L1442.89 94.31" stroke="rgba(68, 119, 225, 0.18)" stroke-width="1.5"></path>
        <path d="M1295.13 -108.93L1155.48 108.57" stroke="rgba(68, 119, 225, 0.18)" stroke-width="1.5"></path>
        <path d="M1295.13 -108.93L1570.91 -88.74" stroke="rgba(68, 119, 225, 0.18)" stroke-width="1.5"></path>
        <path d="M1243.76 44.42L1243.76 44.42" stroke="rgba(68, 119, 225, 0.18)" stroke-width="1.5"></path>
        <path d="M1243.76 44.42L1442.89 94.31" stroke="rgba(68, 119, 225, 0.18)" stroke-width="1.5"></path>
        <path d="M1285.16 258.95L1285.16 258.95" stroke="rgba(68, 119, 225, 0.18)" stroke-width="1.5"></path>
        <path d="M1285.16 258.95L1300.96 411.85" stroke="rgba(68, 119, 225, 0.18)" stroke-width="1.5"></path>
        <path d="M1285.16 258.95L1113.92 242.59" stroke="rgba(68, 119, 225, 0.18)" stroke-width="1.5"></path>
        <path d="M1285.16 258.95L1459.54 214.5" stroke="rgba(68, 119, 225, 0.18)" stroke-width="1.5"></path>
        <path d="M1285.16 258.95L1155.48 108.57" stroke="rgba(68, 119, 225, 0.18)" stroke-width="1.5"></path>
        <path d="M1285.16 258.95L1243.76 44.42" stroke="rgba(68, 119, 225, 0.18)" stroke-width="1.5"></path>
        <path d="M1300.96 411.85L1300.96 411.85" stroke="rgba(68, 119, 225, 0.18)" stroke-width="1.5"></path>
        <path d="M1300.96 411.85L1288.83 499.46" stroke="rgba(68, 119, 225, 0.18)" stroke-width="1.5"></path>
        <path d="M1300.96 411.85L1437.18 492.94" stroke="rgba(68, 119, 225, 0.18)" stroke-width="1.5"></path>
        <path d="M1300.96 411.85L1113.92 242.59" stroke="rgba(68, 119, 225, 0.18)" stroke-width="1.5"></path>
        <path d="M1288.83 499.46L1288.83 499.46" stroke="rgba(68, 119, 225, 0.18)" stroke-width="1.5"></path>
        <path d="M1288.83 499.46L1437.18 492.94" stroke="rgba(68, 119, 225, 0.18)" stroke-width="1.5"></path>
        <path d="M1288.83 499.46L1256.23 664.78" stroke="rgba(68, 119, 225, 0.18)" stroke-width="1.5"></path>
        <path d="M1256.23 664.78L1256.23 664.78" stroke="rgba(68, 119, 225, 0.18)" stroke-width="1.5"></path>
        <path d="M1256.23 664.78L1390.2 689.71" stroke="rgba(68, 119, 225, 0.18)" stroke-width="1.5"></path>
        <path d="M1448.52 -81.2L1448.52 -81.2" stroke="rgba(68, 119, 225, 0.18)" stroke-width="1.5"></path>
        <path d="M1448.52 -81.2L1570.91 -88.74" stroke="rgba(68, 119, 225, 0.18)" stroke-width="1.5"></path>
        <path d="M1448.52 -81.2L1442.89 94.31" stroke="rgba(68, 119, 225, 0.18)" stroke-width="1.5"></path>
        <path d="M1448.52 -81.2L1590.17 55.45" stroke="rgba(68, 119, 225, 0.18)" stroke-width="1.5"></path>
        <path d="M1442.89 94.31L1442.89 94.31" stroke="rgba(68, 119, 225, 0.18)" stroke-width="1.5"></path>
        <path d="M1442.89 94.31L1459.54 214.5" stroke="rgba(68, 119, 225, 0.18)" stroke-width="1.5"></path>
        <path d="M1442.89 94.31L1590.17 55.45" stroke="rgba(68, 119, 225, 0.18)" stroke-width="1.5"></path>
        <path d="M1459.54 214.5L1459.54 214.5" stroke="rgba(68, 119, 225, 0.18)" stroke-width="1.5"></path>
        <path d="M1459.54 214.5L1581.48 228.98" stroke="rgba(68, 119, 225, 0.18)" stroke-width="1.5"></path>
        <path d="M1459.54 214.5L1555.96 352.28" stroke="rgba(68, 119, 225, 0.18)" stroke-width="1.5"></path>
        <path d="M1459.54 214.5L1590.17 55.45" stroke="rgba(68, 119, 225, 0.18)" stroke-width="1.5"></path>
        <path d="M1437.18 492.94L1437.18 492.94" stroke="rgba(68, 119, 225, 0.18)" stroke-width="1.5"></path>
        <path d="M1437.18 492.94L1573.3 516.01" stroke="rgba(68, 119, 225, 0.18)" stroke-width="1.5"></path>
        <path d="M1437.18 492.94L1555.96 352.28" stroke="rgba(68, 119, 225, 0.18)" stroke-width="1.5"></path>
        <path d="M1437.18 492.94L1390.2 689.71" stroke="rgba(68, 119, 225, 0.18)" stroke-width="1.5"></path>
        <path d="M1390.2 689.71L1390.2 689.71" stroke="rgba(68, 119, 225, 0.18)" stroke-width="1.5"></path>
        <path d="M1390.2 689.71L1288.83 499.46" stroke="rgba(68, 119, 225, 0.18)" stroke-width="1.5"></path>
        <path d="M1390.2 689.71L1610.03 690.55" stroke="rgba(68, 119, 225, 0.18)" stroke-width="1.5"></path>
        <path d="M1390.2 689.71L1573.3 516.01" stroke="rgba(68, 119, 225, 0.18)" stroke-width="1.5"></path>
        <path d="M1570.91 -88.74L1570.91 -88.74" stroke="rgba(68, 119, 225, 0.18)" stroke-width="1.5"></path>
        <path d="M1570.91 -88.74L1590.17 55.45" stroke="rgba(68, 119, 225, 0.18)" stroke-width="1.5"></path>
        <path d="M1570.91 -88.74L1442.89 94.31" stroke="rgba(68, 119, 225, 0.18)" stroke-width="1.5"></path>
        <path d="M1570.91 -88.74L1581.48 228.98" stroke="rgba(68, 119, 225, 0.18)" stroke-width="1.5"></path>
        <path d="M1590.17 55.45L1590.17 55.45" stroke="rgba(68, 119, 225, 0.18)" stroke-width="1.5"></path>
        <path d="M1581.48 228.98L1581.48 228.98" stroke="rgba(68, 119, 225, 0.18)" stroke-width="1.5"></path>
        <path d="M1555.96 352.28L1555.96 352.28" stroke="rgba(68, 119, 225, 0.18)" stroke-width="1.5"></path>
        <path d="M1555.96 352.28L1581.48 228.98" stroke="rgba(68, 119, 225, 0.18)" stroke-width="1.5"></path>
        <path d="M1555.96 352.28L1573.3 516.01" stroke="rgba(68, 119, 225, 0.18)" stroke-width="1.5"></path>
        <path d="M1573.3 516.01L1573.3 516.01" stroke="rgba(68, 119, 225, 0.18)" stroke-width="1.5"></path>
        <path d="M1610.03 690.55L1610.03 690.55" stroke="rgba(68, 119, 225, 0.18)" stroke-width="1.5"></path>
        <path d="M1610.03 690.55L1573.3 516.01" stroke="rgba(68, 119, 225, 0.18)" stroke-width="1.5"></path>
        <circle r="5" cx="-72.25" cy="372" fill="rgba(68, 119, 225, 0.18)"></circle>
        <circle r="5" cx="-55.47" cy="547.8" fill="rgba(68, 119, 225, 0.18)"></circle>
        <circle r="5" cx="-98.79" cy="652.76" fill="rgba(68, 119, 225, 0.18)"></circle>
        <circle r="5" cx="74.29" cy="354.51" fill="rgba(68, 119, 225, 0.18)"></circle>
        <circle r="5" cx="86.95" cy="555.53" fill="rgba(68, 119, 225, 0.18)"></circle>
        <circle r="5" cx="72.68" cy="641.68" fill="rgba(68, 119, 225, 0.18)"></circle>
        <circle r="5" cx="247.51" cy="394.71" fill="rgba(68, 119, 225, 0.18)"></circle>
        <circle r="5" cx="254.49" cy="544.08" fill="rgba(68, 119, 225, 0.18)"></circle>
        <circle r="5" cx="229.83" cy="662.23" fill="rgba(68, 119, 225, 0.18)"></circle>
        <circle r="5" cx="407.76" cy="341.81" fill="rgba(68, 119, 225, 0.18)"></circle>
        <circle r="5" cx="348.98" cy="537.08" fill="rgba(68, 119, 225, 0.18)"></circle>
        <circle r="5" cx="389.25" cy="651.06" fill="rgba(68, 119, 225, 0.18)"></circle>
        <circle r="5" cx="545.81" cy="363.52" fill="rgba(68, 119, 225, 0.18)"></circle>
        <circle r="5" cx="548.48" cy="513.63" fill="rgba(68, 119, 225, 0.18)"></circle>
        <circle r="5" cx="531.38" cy="705.04" fill="rgba(68, 119, 225, 0.18)"></circle>
        <circle r="5" cx="693.3" cy="236.33" fill="rgba(68, 119, 225, 0.18)"></circle>
        <circle r="5" cx="683.41" cy="354.32" fill="rgba(68, 119, 225, 0.18)"></circle>
        <circle r="5" cx="683.68" cy="520.35" fill="rgba(68, 119, 225, 0.18)"></circle>
        <circle r="5" cx="675.8" cy="643.9" fill="rgba(68, 119, 225, 0.18)"></circle>
        <circle r="5" cx="856.17" cy="65.03" fill="rgba(68, 119, 225, 0.18)"></circle>
        <circle r="5" cx="800.23" cy="228.94" fill="rgba(68, 119, 225, 0.18)"></circle>
        <circle r="5" cx="860.99" cy="376.75" fill="rgba(68, 119, 225, 0.18)"></circle>
        <circle r="5" cx="843.33" cy="540.72" fill="rgba(68, 119, 225, 0.18)"></circle>
        <circle r="5" cx="807.29" cy="655.14" fill="rgba(68, 119, 225, 0.18)"></circle>
        <circle r="5" cx="963.72" cy="-111.25" fill="rgba(68, 119, 225, 0.18)"></circle>
        <circle r="5" cx="982.35" cy="85.94" fill="rgba(68, 119, 225, 0.18)"></circle>
        <circle r="5" cx="988.96" cy="202.9" fill="rgba(68, 119, 225, 0.18)"></circle>
        <circle r="5" cx="946.78" cy="388.8" fill="rgba(68, 119, 225, 0.18)"></circle>
        <circle r="5" cx="937.89" cy="505.41" fill="rgba(68, 119, 225, 0.18)"></circle>
        <circle r="5" cx="955.1" cy="640.52" fill="rgba(68, 119, 225, 0.18)"></circle>
        <circle r="5" cx="1116.95" cy="-95.35" fill="rgba(68, 119, 225, 0.18)"></circle>
        <circle r="5" cx="1155.48" cy="108.57" fill="rgba(68, 119, 225, 0.18)"></circle>
        <circle r="5" cx="1113.92" cy="242.59" fill="rgba(68, 119, 225, 0.18)"></circle>
        <circle r="5" cx="1129.55" cy="377.58" fill="rgba(68, 119, 225, 0.18)"></circle>
        <circle r="5" cx="1156.04" cy="559.33" fill="rgba(68, 119, 225, 0.18)"></circle>
        <circle r="5" cx="1125.15" cy="664.71" fill="rgba(68, 119, 225, 0.18)"></circle>
        <circle r="5" cx="1295.13" cy="-108.93" fill="rgba(68, 119, 225, 0.18)"></circle>
        <circle r="5" cx="1243.76" cy="44.42" fill="rgba(68, 119, 225, 0.18)"></circle>
        <circle r="5" cx="1285.16" cy="258.95" fill="rgba(68, 119, 225, 0.18)"></circle>
        <circle r="5" cx="1300.96" cy="411.85" fill="rgba(68, 119, 225, 0.18)"></circle>
        <circle r="5" cx="1288.83" cy="499.46" fill="rgba(68, 119, 225, 0.18)"></circle>
        <circle r="5" cx="1256.23" cy="664.78" fill="rgba(68, 119, 225, 0.18)"></circle>
        <circle r="5" cx="1448.52" cy="-81.2" fill="rgba(68, 119, 225, 0.18)"></circle>
        <circle r="5" cx="1442.89" cy="94.31" fill="rgba(68, 119, 225, 0.18)"></circle>
        <circle r="5" cx="1459.54" cy="214.5" fill="rgba(68, 119, 225, 0.18)"></circle>
        <circle r="5" cx="1437.18" cy="492.94" fill="rgba(68, 119, 225, 0.18)"></circle>
        <circle r="5" cx="1390.2" cy="689.71" fill="rgba(68, 119, 225, 0.18)"></circle>
        <circle r="5" cx="1570.91" cy="-88.74" fill="rgba(68, 119, 225, 0.18)"></circle>
        <circle r="5" cx="1590.17" cy="55.45" fill="rgba(68, 119, 225, 0.18)"></circle>
        <circle r="5" cx="1581.48" cy="228.98" fill="rgba(68, 119, 225, 0.18)"></circle>
        <circle r="5" cx="1555.96" cy="352.28" fill="rgba(68, 119, 225, 0.18)"></circle>
        <circle r="5" cx="1573.3" cy="516.01" fill="rgba(68, 119, 225, 0.18)"></circle>
        <circle r="5" cx="1610.03" cy="690.55" fill="rgba(68, 119, 225, 0.18)"></circle>
        <path d="M1090.59 642.98L1090.59 642.98" stroke="hsla(228.60000000000002, 93.1%, 59.1%, 0.23)" stroke-width="1.5"></path>
        <path d="M1090.59 642.98L1010.1 711.67" stroke="hsla(228.60000000000002, 93.1%, 59.1%, 0.23)" stroke-width="1.5"></path>
        <path d="M1090.59 642.98L1119.68 528.67" stroke="hsla(228.60000000000002, 93.1%, 59.1%, 0.23)" stroke-width="1.5"></path>
        <path d="M1090.59 642.98L1004.47 523.09" stroke="hsla(228.60000000000002, 93.1%, 59.1%, 0.23)" stroke-width="1.5"></path>
        <path d="M1273.53 -38.11L1273.53 -38.11" stroke="hsla(228.60000000000002, 93.1%, 59.1%, 0.23)" stroke-width="1.5"></path>
        <path d="M1273.53 -38.11L1252.49 40.73" stroke="hsla(228.60000000000002, 93.1%, 59.1%, 0.23)" stroke-width="1.5"></path>
        <path d="M1273.53 -38.11L1402.65 -95.26" stroke="hsla(228.60000000000002, 93.1%, 59.1%, 0.23)" stroke-width="1.5"></path>
        <path d="M1273.53 -38.11L1270.9 227.07" stroke="hsla(228.60000000000002, 93.1%, 59.1%, 0.23)" stroke-width="1.5"></path>
        <path d="M1270.9 227.07L1270.9 227.07" stroke="hsla(228.60000000000002, 93.1%, 59.1%, 0.23)" stroke-width="1.5"></path>
        <path d="M1270.9 227.07L1117.83 231.91" stroke="hsla(228.60000000000002, 93.1%, 59.1%, 0.23)" stroke-width="1.5"></path>
        <path d="M1270.9 227.07L1245.3 405.93" stroke="hsla(228.60000000000002, 93.1%, 59.1%, 0.23)" stroke-width="1.5"></path>
        <path d="M1270.9 227.07L1252.49 40.73" stroke="hsla(228.60000000000002, 93.1%, 59.1%, 0.23)" stroke-width="1.5"></path>
        <path d="M1270.9 227.07L1460.39 213.78" stroke="hsla(228.60000000000002, 93.1%, 59.1%, 0.23)" stroke-width="1.5"></path>
        <path d="M1402.65 -95.26L1402.65 -95.26" stroke="hsla(228.60000000000002, 93.1%, 59.1%, 0.23)" stroke-width="1.5"></path>
        <path d="M1402.65 -95.26L1553.99 -85.22" stroke="hsla(228.60000000000002, 93.1%, 59.1%, 0.23)" stroke-width="1.5"></path>
        <path d="M1402.65 -95.26L1252.49 40.73" stroke="hsla(228.60000000000002, 93.1%, 59.1%, 0.23)" stroke-width="1.5"></path>
        <path d="M1402.65 -95.26L1589.13 62.14" stroke="hsla(228.60000000000002, 93.1%, 59.1%, 0.23)" stroke-width="1.5"></path>
        <path d="M1402.65 -95.26L1460.39 213.78" stroke="hsla(228.60000000000002, 93.1%, 59.1%, 0.23)" stroke-width="1.5"></path>
        <path d="M1460.39 213.78L1460.39 213.78" stroke="hsla(228.60000000000002, 93.1%, 59.1%, 0.23)" stroke-width="1.5"></path>
        <path d="M1460.39 213.78L1445.05 356.64" stroke="hsla(228.60000000000002, 93.1%, 59.1%, 0.23)" stroke-width="1.5"></path>
        <path d="M1460.39 213.78L1606.62 240.28" stroke="hsla(228.60000000000002, 93.1%, 59.1%, 0.23)" stroke-width="1.5"></path>
        <path d="M1460.39 213.78L1544.66 381.2" stroke="hsla(228.60000000000002, 93.1%, 59.1%, 0.23)" stroke-width="1.5"></path>
        <path d="M1440.65 684.53L1440.65 684.53" stroke="hsla(228.60000000000002, 93.1%, 59.1%, 0.23)" stroke-width="1.5"></path>
        <path d="M1440.65 684.53L1439.47 542.12" stroke="hsla(228.60000000000002, 93.1%, 59.1%, 0.23)" stroke-width="1.5"></path>
        <path d="M1440.65 684.53L1608.59 637.68" stroke="hsla(228.60000000000002, 93.1%, 59.1%, 0.23)" stroke-width="1.5"></path>
        <path d="M1440.65 684.53L1263.9 682.79" stroke="hsla(228.60000000000002, 93.1%, 59.1%, 0.23)" stroke-width="1.5"></path>
        <path d="M1440.65 684.53L1573.1 550.48" stroke="hsla(228.60000000000002, 93.1%, 59.1%, 0.23)" stroke-width="1.5"></path>
        <path d="M1440.65 684.53L1242.98 504.6" stroke="hsla(228.60000000000002, 93.1%, 59.1%, 0.23)" stroke-width="1.5"></path>
        <path d="M1589.13 62.14L1589.13 62.14" stroke="hsla(228.60000000000002, 93.1%, 59.1%, 0.23)" stroke-width="1.5"></path>
        <path d="M1589.13 62.14L1553.99 -85.22" stroke="hsla(228.60000000000002, 93.1%, 59.1%, 0.23)" stroke-width="1.5"></path>
        <path d="M1589.13 62.14L1606.62 240.28" stroke="hsla(228.60000000000002, 93.1%, 59.1%, 0.23)" stroke-width="1.5"></path>
        <path d="M1573.1 550.48L1573.1 550.48" stroke="hsla(228.60000000000002, 93.1%, 59.1%, 0.23)" stroke-width="1.5"></path>
        <path d="M1573.1 550.48L1608.59 637.68" stroke="hsla(228.60000000000002, 93.1%, 59.1%, 0.23)" stroke-width="1.5"></path>
        <path d="M1573.1 550.48L1439.47 542.12" stroke="hsla(228.60000000000002, 93.1%, 59.1%, 0.23)" stroke-width="1.5"></path>
        <path d="M1608.59 637.68L1608.59 637.68" stroke="hsla(228.60000000000002, 93.1%, 59.1%, 0.23)" stroke-width="1.5"></path>
        <path d="M-92.26 551.47L-92.26 551.47" stroke="hsla(228.60000000000002, 93.1%, 59.1%, 0.23)" stroke-width="1.5"></path>
        <path d="M-92.26 551.47L-75.1 649.64" stroke="hsla(228.60000000000002, 93.1%, 59.1%, 0.23)" stroke-width="1.5"></path>
        <path d="M-92.26 551.47L91.74 535.15" stroke="hsla(228.60000000000002, 93.1%, 59.1%, 0.23)" stroke-width="1.5"></path>
        <path d="M-75.1 649.64L-75.1 649.64" stroke="hsla(228.60000000000002, 93.1%, 59.1%, 0.23)" stroke-width="1.5"></path>
        <path d="M-75.1 649.64L62.18 704.01" stroke="hsla(228.60000000000002, 93.1%, 59.1%, 0.23)" stroke-width="1.5"></path>
        <path d="M91.74 535.15L91.74 535.15" stroke="hsla(228.60000000000002, 93.1%, 59.1%, 0.23)" stroke-width="1.5"></path>
        <path d="M91.74 535.15L212.47 547.67" stroke="hsla(228.60000000000002, 93.1%, 59.1%, 0.23)" stroke-width="1.5"></path>
        <path d="M91.74 535.15L62.18 704.01" stroke="hsla(228.60000000000002, 93.1%, 59.1%, 0.23)" stroke-width="1.5"></path>
        <path d="M91.74 535.15L-75.1 649.64" stroke="hsla(228.60000000000002, 93.1%, 59.1%, 0.23)" stroke-width="1.5"></path>
        <path d="M62.18 704.01L62.18 704.01" stroke="hsla(228.60000000000002, 93.1%, 59.1%, 0.23)" stroke-width="1.5"></path>
        <path d="M62.18 704.01L237.31 703.96" stroke="hsla(228.60000000000002, 93.1%, 59.1%, 0.23)" stroke-width="1.5"></path>
        <path d="M62.18 704.01L212.47 547.67" stroke="hsla(228.60000000000002, 93.1%, 59.1%, 0.23)" stroke-width="1.5"></path>
        <path d="M62.18 704.01L-92.26 551.47" stroke="hsla(228.60000000000002, 93.1%, 59.1%, 0.23)" stroke-width="1.5"></path>
        <path d="M212.47 547.67L212.47 547.67" stroke="hsla(228.60000000000002, 93.1%, 59.1%, 0.23)" stroke-width="1.5"></path>
        <path d="M237.31 703.96L237.31 703.96" stroke="hsla(228.60000000000002, 93.1%, 59.1%, 0.23)" stroke-width="1.5"></path>
        <path d="M237.31 703.96L212.47 547.67" stroke="hsla(228.60000000000002, 93.1%, 59.1%, 0.23)" stroke-width="1.5"></path>
        <path d="M237.31 703.96L395.19 668.57" stroke="hsla(228.60000000000002, 93.1%, 59.1%, 0.23)" stroke-width="1.5"></path>
        <path d="M237.31 703.96L399.52 557.07" stroke="hsla(228.60000000000002, 93.1%, 59.1%, 0.23)" stroke-width="1.5"></path>
        <path d="M399.52 557.07L399.52 557.07" stroke="hsla(228.60000000000002, 93.1%, 59.1%, 0.23)" stroke-width="1.5"></path>
        <path d="M399.52 557.07L496.33 556.64" stroke="hsla(228.60000000000002, 93.1%, 59.1%, 0.23)" stroke-width="1.5"></path>
        <path d="M399.52 557.07L395.19 668.57" stroke="hsla(228.60000000000002, 93.1%, 59.1%, 0.23)" stroke-width="1.5"></path>
        <path d="M399.52 557.07L488.58 680.74" stroke="hsla(228.60000000000002, 93.1%, 59.1%, 0.23)" stroke-width="1.5"></path>
        <path d="M399.52 557.07L212.47 547.67" stroke="hsla(228.60000000000002, 93.1%, 59.1%, 0.23)" stroke-width="1.5"></path>
        <path d="M395.19 668.57L395.19 668.57" stroke="hsla(228.60000000000002, 93.1%, 59.1%, 0.23)" stroke-width="1.5"></path>
        <path d="M395.19 668.57L488.58 680.74" stroke="hsla(228.60000000000002, 93.1%, 59.1%, 0.23)" stroke-width="1.5"></path>
        <path d="M496.33 556.64L496.33 556.64" stroke="hsla(228.60000000000002, 93.1%, 59.1%, 0.23)" stroke-width="1.5"></path>
        <path d="M496.33 556.64L488.58 680.74" stroke="hsla(228.60000000000002, 93.1%, 59.1%, 0.23)" stroke-width="1.5"></path>
        <path d="M496.33 556.64L395.19 668.57" stroke="hsla(228.60000000000002, 93.1%, 59.1%, 0.23)" stroke-width="1.5"></path>
        <path d="M488.58 680.74L488.58 680.74" stroke="hsla(228.60000000000002, 93.1%, 59.1%, 0.23)" stroke-width="1.5"></path>
        <path d="M488.58 680.74L696.93 703.39" stroke="hsla(228.60000000000002, 93.1%, 59.1%, 0.23)" stroke-width="1.5"></path>
        <path d="M488.58 680.74L659.24 539.9" stroke="hsla(228.60000000000002, 93.1%, 59.1%, 0.23)" stroke-width="1.5"></path>
        <path d="M488.58 680.74L237.31 703.96" stroke="hsla(228.60000000000002, 93.1%, 59.1%, 0.23)" stroke-width="1.5"></path>
        <path d="M659.24 539.9L659.24 539.9" stroke="hsla(228.60000000000002, 93.1%, 59.1%, 0.23)" stroke-width="1.5"></path>
        <path d="M659.24 539.9L496.33 556.64" stroke="hsla(228.60000000000002, 93.1%, 59.1%, 0.23)" stroke-width="1.5"></path>
        <path d="M659.24 539.9L696.93 703.39" stroke="hsla(228.60000000000002, 93.1%, 59.1%, 0.23)" stroke-width="1.5"></path>
        <path d="M696.93 703.39L696.93 703.39" stroke="hsla(228.60000000000002, 93.1%, 59.1%, 0.23)" stroke-width="1.5"></path>
        <path d="M696.93 703.39L808.63 707.97" stroke="hsla(228.60000000000002, 93.1%, 59.1%, 0.23)" stroke-width="1.5"></path>
        <path d="M838.66 380.51L838.66 380.51" stroke="hsla(228.60000000000002, 93.1%, 59.1%, 0.23)" stroke-width="1.5"></path>
        <path d="M838.66 380.51L952.43 368.08" stroke="hsla(228.60000000000002, 93.1%, 59.1%, 0.23)" stroke-width="1.5"></path>
        <path d="M838.66 380.51L857.72 560.47" stroke="hsla(228.60000000000002, 93.1%, 59.1%, 0.23)" stroke-width="1.5"></path>
        <path d="M838.66 380.51L1004.47 523.09" stroke="hsla(228.60000000000002, 93.1%, 59.1%, 0.23)" stroke-width="1.5"></path>
        <path d="M838.66 380.51L659.24 539.9" stroke="hsla(228.60000000000002, 93.1%, 59.1%, 0.23)" stroke-width="1.5"></path>
        <path d="M838.66 380.51L1122.51 371.73" stroke="hsla(228.60000000000002, 93.1%, 59.1%, 0.23)" stroke-width="1.5"></path>
        <path d="M838.66 380.51L1117.83 231.91" stroke="hsla(228.60000000000002, 93.1%, 59.1%, 0.23)" stroke-width="1.5"></path>
        <path d="M857.72 560.47L857.72 560.47" stroke="hsla(228.60000000000002, 93.1%, 59.1%, 0.23)" stroke-width="1.5"></path>
        <path d="M857.72 560.47L1004.47 523.09" stroke="hsla(228.60000000000002, 93.1%, 59.1%, 0.23)" stroke-width="1.5"></path>
        <path d="M808.63 707.97L808.63 707.97" stroke="hsla(228.60000000000002, 93.1%, 59.1%, 0.23)" stroke-width="1.5"></path>
        <path d="M808.63 707.97L857.72 560.47" stroke="hsla(228.60000000000002, 93.1%, 59.1%, 0.23)" stroke-width="1.5"></path>
        <path d="M808.63 707.97L1010.1 711.67" stroke="hsla(228.60000000000002, 93.1%, 59.1%, 0.23)" stroke-width="1.5"></path>
        <path d="M952.43 368.08L952.43 368.08" stroke="hsla(228.60000000000002, 93.1%, 59.1%, 0.23)" stroke-width="1.5"></path>
        <path d="M952.43 368.08L1004.47 523.09" stroke="hsla(228.60000000000002, 93.1%, 59.1%, 0.23)" stroke-width="1.5"></path>
        <path d="M952.43 368.08L1122.51 371.73" stroke="hsla(228.60000000000002, 93.1%, 59.1%, 0.23)" stroke-width="1.5"></path>
        <path d="M1004.47 523.09L1004.47 523.09" stroke="hsla(228.60000000000002, 93.1%, 59.1%, 0.23)" stroke-width="1.5"></path>
        <path d="M1004.47 523.09L1119.68 528.67" stroke="hsla(228.60000000000002, 93.1%, 59.1%, 0.23)" stroke-width="1.5"></path>
        <path d="M1010.1 711.67L1010.1 711.67" stroke="hsla(228.60000000000002, 93.1%, 59.1%, 0.23)" stroke-width="1.5"></path>
        <path d="M1010.1 711.67L1004.47 523.09" stroke="hsla(228.60000000000002, 93.1%, 59.1%, 0.23)" stroke-width="1.5"></path>
        <path d="M1010.1 711.67L1119.68 528.67" stroke="hsla(228.60000000000002, 93.1%, 59.1%, 0.23)" stroke-width="1.5"></path>
        <path d="M1010.1 711.67L857.72 560.47" stroke="hsla(228.60000000000002, 93.1%, 59.1%, 0.23)" stroke-width="1.5"></path>
        <path d="M1117.83 231.91L1117.83 231.91" stroke="hsla(228.60000000000002, 93.1%, 59.1%, 0.23)" stroke-width="1.5"></path>
        <path d="M1117.83 231.91L1122.51 371.73" stroke="hsla(228.60000000000002, 93.1%, 59.1%, 0.23)" stroke-width="1.5"></path>
        <path d="M1117.83 231.91L952.43 368.08" stroke="hsla(228.60000000000002, 93.1%, 59.1%, 0.23)" stroke-width="1.5"></path>
        <path d="M1122.51 371.73L1122.51 371.73" stroke="hsla(228.60000000000002, 93.1%, 59.1%, 0.23)" stroke-width="1.5"></path>
        <path d="M1122.51 371.73L1245.3 405.93" stroke="hsla(228.60000000000002, 93.1%, 59.1%, 0.23)" stroke-width="1.5"></path>
        <path d="M1119.68 528.67L1119.68 528.67" stroke="hsla(228.60000000000002, 93.1%, 59.1%, 0.23)" stroke-width="1.5"></path>
        <path d="M1119.68 528.67L1242.98 504.6" stroke="hsla(228.60000000000002, 93.1%, 59.1%, 0.23)" stroke-width="1.5"></path>
        <path d="M1119.68 528.67L1122.51 371.73" stroke="hsla(228.60000000000002, 93.1%, 59.1%, 0.23)" stroke-width="1.5"></path>
        <path d="M1119.68 528.67L1245.3 405.93" stroke="hsla(228.60000000000002, 93.1%, 59.1%, 0.23)" stroke-width="1.5"></path>
        <path d="M1119.68 528.67L1263.9 682.79" stroke="hsla(228.60000000000002, 93.1%, 59.1%, 0.23)" stroke-width="1.5"></path>
        <path d="M1252.49 40.73L1252.49 40.73" stroke="hsla(228.60000000000002, 93.1%, 59.1%, 0.23)" stroke-width="1.5"></path>
        <path d="M1252.49 40.73L1117.83 231.91" stroke="hsla(228.60000000000002, 93.1%, 59.1%, 0.23)" stroke-width="1.5"></path>
        <path d="M1245.3 405.93L1245.3 405.93" stroke="hsla(228.60000000000002, 93.1%, 59.1%, 0.23)" stroke-width="1.5"></path>
        <path d="M1245.3 405.93L1242.98 504.6" stroke="hsla(228.60000000000002, 93.1%, 59.1%, 0.23)" stroke-width="1.5"></path>
        <path d="M1245.3 405.93L1445.05 356.64" stroke="hsla(228.60000000000002, 93.1%, 59.1%, 0.23)" stroke-width="1.5"></path>
        <path d="M1245.3 405.93L1117.83 231.91" stroke="hsla(228.60000000000002, 93.1%, 59.1%, 0.23)" stroke-width="1.5"></path>
        <path d="M1242.98 504.6L1242.98 504.6" stroke="hsla(228.60000000000002, 93.1%, 59.1%, 0.23)" stroke-width="1.5"></path>
        <path d="M1263.9 682.79L1263.9 682.79" stroke="hsla(228.60000000000002, 93.1%, 59.1%, 0.23)" stroke-width="1.5"></path>
        <path d="M1263.9 682.79L1090.59 642.98" stroke="hsla(228.60000000000002, 93.1%, 59.1%, 0.23)" stroke-width="1.5"></path>
        <path d="M1263.9 682.79L1242.98 504.6" stroke="hsla(228.60000000000002, 93.1%, 59.1%, 0.23)" stroke-width="1.5"></path>
        <path d="M1263.9 682.79L1439.47 542.12" stroke="hsla(228.60000000000002, 93.1%, 59.1%, 0.23)" stroke-width="1.5"></path>
        <path d="M1263.9 682.79L1010.1 711.67" stroke="hsla(228.60000000000002, 93.1%, 59.1%, 0.23)" stroke-width="1.5"></path>
        <path d="M1445.05 356.64L1445.05 356.64" stroke="hsla(228.60000000000002, 93.1%, 59.1%, 0.23)" stroke-width="1.5"></path>
        <path d="M1445.05 356.64L1544.66 381.2" stroke="hsla(228.60000000000002, 93.1%, 59.1%, 0.23)" stroke-width="1.5"></path>
        <path d="M1445.05 356.64L1439.47 542.12" stroke="hsla(228.60000000000002, 93.1%, 59.1%, 0.23)" stroke-width="1.5"></path>
        <path d="M1439.47 542.12L1439.47 542.12" stroke="hsla(228.60000000000002, 93.1%, 59.1%, 0.23)" stroke-width="1.5"></path>
        <path d="M1439.47 542.12L1544.66 381.2" stroke="hsla(228.60000000000002, 93.1%, 59.1%, 0.23)" stroke-width="1.5"></path>
        <path d="M1439.47 542.12L1608.59 637.68" stroke="hsla(228.60000000000002, 93.1%, 59.1%, 0.23)" stroke-width="1.5"></path>
        <path d="M1553.99 -85.22L1553.99 -85.22" stroke="hsla(228.60000000000002, 93.1%, 59.1%, 0.23)" stroke-width="1.5"></path>
        <path d="M1606.62 240.28L1606.62 240.28" stroke="hsla(228.60000000000002, 93.1%, 59.1%, 0.23)" stroke-width="1.5"></path>
        <path d="M1606.62 240.28L1544.66 381.2" stroke="hsla(228.60000000000002, 93.1%, 59.1%, 0.23)" stroke-width="1.5"></path>
        <path d="M1606.62 240.28L1445.05 356.64" stroke="hsla(228.60000000000002, 93.1%, 59.1%, 0.23)" stroke-width="1.5"></path>
        <path d="M1606.62 240.28L1573.1 550.48" stroke="hsla(228.60000000000002, 93.1%, 59.1%, 0.23)" stroke-width="1.5"></path>
        <path d="M1606.62 240.28L1553.99 -85.22" stroke="hsla(228.60000000000002, 93.1%, 59.1%, 0.23)" stroke-width="1.5"></path>
        <path d="M1544.66 381.2L1544.66 381.2" stroke="hsla(228.60000000000002, 93.1%, 59.1%, 0.23)" stroke-width="1.5"></path>
        <path d="M1544.66 381.2L1573.1 550.48" stroke="hsla(228.60000000000002, 93.1%, 59.1%, 0.23)" stroke-width="1.5"></path>
        <circle r="25" cx="1090.59" cy="642.98" fill="url(&quot;#SvgjsRadialGradient1007&quot;)"></circle>
        <circle r="25" cx="1273.53" cy="-38.11" fill="url(&quot;#SvgjsRadialGradient1007&quot;)"></circle>
        <circle r="25" cx="1270.9" cy="227.07" fill="url(&quot;#SvgjsRadialGradient1007&quot;)"></circle>
        <circle r="25" cx="1402.65" cy="-95.26" fill="url(&quot;#SvgjsRadialGradient1007&quot;)"></circle>
        <circle r="25" cx="1460.39" cy="213.78" fill="url(&quot;#SvgjsRadialGradient1007&quot;)"></circle>
        <circle r="25" cx="1440.65" cy="684.53" fill="url(&quot;#SvgjsRadialGradient1007&quot;)"></circle>
        <circle r="25" cx="1589.13" cy="62.14" fill="url(&quot;#SvgjsRadialGradient1007&quot;)"></circle>
        <circle r="25" cx="1573.1" cy="550.48" fill="url(&quot;#SvgjsRadialGradient1007&quot;)"></circle>
        <circle r="25" cx="1608.59" cy="637.68" fill="url(&quot;#SvgjsRadialGradient1007&quot;)"></circle>
        <circle r="5" cx="-92.26" cy="551.47" fill="rgba(227, 231, 251, 0.615)"></circle>
        <circle r="5" cx="-75.1" cy="649.64" fill="rgba(227, 231, 251, 0.615)"></circle>
        <circle r="5" cx="91.74" cy="535.15" fill="rgba(227, 231, 251, 0.615)"></circle>
        <circle r="5" cx="62.18" cy="704.01" fill="rgba(227, 231, 251, 0.615)"></circle>
        <circle r="5" cx="212.47" cy="547.67" fill="rgba(227, 231, 251, 0.615)"></circle>
        <circle r="5" cx="237.31" cy="703.96" fill="rgba(227, 231, 251, 0.615)"></circle>
        <circle r="5" cx="399.52" cy="557.07" fill="rgba(227, 231, 251, 0.615)"></circle>
        <circle r="5" cx="395.19" cy="668.57" fill="rgba(227, 231, 251, 0.615)"></circle>
        <circle r="5" cx="496.33" cy="556.64" fill="rgba(227, 231, 251, 0.615)"></circle>
        <circle r="5" cx="488.58" cy="680.74" fill="rgba(227, 231, 251, 0.615)"></circle>
        <circle r="5" cx="659.24" cy="539.9" fill="rgba(227, 231, 251, 0.615)"></circle>
        <circle r="5" cx="696.93" cy="703.39" fill="rgba(227, 231, 251, 0.615)"></circle>
        <circle r="5" cx="838.66" cy="380.51" fill="rgba(227, 231, 251, 0.615)"></circle>
        <circle r="5" cx="857.72" cy="560.47" fill="rgba(227, 231, 251, 0.615)"></circle>
        <circle r="5" cx="808.63" cy="707.97" fill="rgba(227, 231, 251, 0.615)"></circle>
        <circle r="5" cx="952.43" cy="368.08" fill="rgba(227, 231, 251, 0.615)"></circle>
        <circle r="5" cx="1004.47" cy="523.09" fill="rgba(227, 231, 251, 0.615)"></circle>
        <circle r="5" cx="1010.1" cy="711.67" fill="rgba(227, 231, 251, 0.615)"></circle>
        <circle r="5" cx="1117.83" cy="231.91" fill="rgba(227, 231, 251, 0.615)"></circle>
        <circle r="5" cx="1122.51" cy="371.73" fill="rgba(227, 231, 251, 0.615)"></circle>
        <circle r="5" cx="1119.68" cy="528.67" fill="rgba(227, 231, 251, 0.615)"></circle>
        <circle r="5" cx="1252.49" cy="40.73" fill="rgba(227, 231, 251, 0.615)"></circle>
        <circle r="5" cx="1245.3" cy="405.93" fill="rgba(227, 231, 251, 0.615)"></circle>
        <circle r="5" cx="1242.98" cy="504.6" fill="rgba(227, 231, 251, 0.615)"></circle>
        <circle r="5" cx="1263.9" cy="682.79" fill="rgba(227, 231, 251, 0.615)"></circle>
        <circle r="5" cx="1445.05" cy="356.64" fill="rgba(227, 231, 251, 0.615)"></circle>
        <circle r="5" cx="1439.47" cy="542.12" fill="rgba(227, 231, 251, 0.615)"></circle>
        <circle r="5" cx="1553.99" cy="-85.22" fill="rgba(227, 231, 251, 0.615)"></circle>
        <circle r="5" cx="1606.62" cy="240.28" fill="rgba(227, 231, 251, 0.615)"></circle>
        <circle r="5" cx="1544.66" cy="381.2" fill="rgba(227, 231, 251, 0.615)"></circle>
    </g>
    <defs>
        <mask id="SvgjsMask1006">
            <rect width="1440" height="560" fill="#ffffff"></rect>
        </mask>
        <radialGradient id="SvgjsRadialGradient1007">
            <stop stop-color="#ffffff" offset="0.1"></stop>
            <stop stop-color="rgba(8, 49, 224, 0.23)" offset="0.2"></stop>
            <stop stop-color="rgba(8, 49, 224, 0)" offset="1"></stop>
        </radialGradient>
    </defs>
</svg>